<?xml version="1.0" encoding="UTF-8"?>
<svg version="1.1" xmlns="http://www.w3.org/2000/svg" width="96" height="96">
<path d="M0 0 C31.68 0 63.36 0 96 0 C96 31.68 96 63.36 96 96 C64.32 96 32.64 96 0 96 C0 64.32 0 32.64 0 0 Z " fill="#EAEBEF" transform="translate(0,0)"/>
<path d="M0 0 C1.0725 0.495 2.145 0.99 3.25 1.5 C6 3 6 3 8 6 C8.28710938 7.9453125 8.28710938 7.9453125 8.34375 10.125 C8.37339844 10.91390625 8.40304688 11.7028125 8.43359375 12.515625 C8.47786458 14.171875 8.52213542 15.828125 8.56640625 17.484375 C8.59605469 18.27328125 8.62570313 19.0621875 8.65625 19.875 C8.68428711 20.95394531 8.68428711 20.95394531 8.71289062 22.0546875 C8.90594788 24.32179666 8.90594788 24.32179666 11 27 C11.35953146 31.76379186 11.02550402 35.64516636 9 40 C8.319375 40.28875 7.63875 40.5775 6.9375 40.875 C6.298125 41.24625 5.65875 41.6175 5 42 C4.70806681 43.9786583 4.42658994 45.96224055 4.28125 47.95703125 C3.8931259 50.7763216 2.64148415 52.71619597 1 55 C1.99 55 2.98 55 4 55 C4.391875 56.051875 4.78375 57.10375 5.1875 58.1875 C8.2339455 63.48428156 13.52894296 64.43622681 19.03076172 66.29052734 C22.70198357 67.61318674 26.24928652 69.22601782 29.8125 70.8125 C30.88032715 71.28429687 30.88032715 71.28429687 31.96972656 71.765625 C33.64768062 72.5077177 35.32402485 73.25344881 37 74 C37 76.64 37 79.28 37 82 C5.32 82 -26.36 82 -59 82 C-59 79.36 -59 76.72 -59 74 C-53.15873294 71.24910269 -47.30095982 68.69521618 -41.25 66.4375 C-32.57745881 63.55563322 -32.57745881 63.55563322 -26.5625 57.25 C-26.2840625 56.13625 -26.2840625 56.13625 -26 55 C-25.01 55 -24.02 55 -23 55 C-23.433125 54.360625 -23.86625 53.72125 -24.3125 53.0625 C-26.12869607 49.76644047 -27.13791931 46.59486909 -28.15625 42.98828125 C-28.93522256 40.64650589 -28.93522256 40.64650589 -32 39 C-33.48994549 34.25926435 -33.45014848 29.15070942 -32.4375 24.3125 C-31.94900998 21.73048134 -32.3526347 20.51753173 -33 18 C-33.45145305 10.88961443 -32.38972507 7.95201332 -27.875 2.375 C-19.99124824 -4.13766449 -8.77360364 -5.38380223 0 0 Z " fill="#787E86" transform="translate(59,14)"/>
<path d="M0 0 C1.51297182 2.40295525 2.03665969 3.63340307 1.75 6.5 C1.045492 8.84835999 0.18844709 10.86079523 -1 13 C-2.20577428 8.05632546 -1.6290678 4.79137588 0 0 Z " fill="#D6DADE" transform="translate(26,32)"/>
</svg>
